
General:

Complete name                    : Homemade.Hot-German.Blonde.Teen.avi
Format                           : AVI
Format/Info                      : Audio Video Interleave
File size                        : 165 MiB
Duration                         : 9mn 55s
Overall bit rate                 : 2 330 Kbps
Writing application              : Lavf52.39.1

Video
ID                               : 0
Format                           : xvid
Codec ID                         : xvid
Duration                         : 9mn 55s
Bit rate                         : 2 254 Kbps
Width                            : 768 pixels
Height                           : 576 pixels
Display aspect ratio             : 4:3
Frame rate                       : 25.000 fps
Bits/(Pixel*Frame)               : 0.204
Stream size                      : 160 MiB (97%)

Audio
ID                               : 1
Format                           : MPEG Audio
Format version                   : Version 1
Format profile                   : Layer 3
Mode                             : Joint stereo
Mode extension                   : MS Stereo
Codec ID                         : 55
Codec ID/Hint                    : MP3
Duration                         : 9mn 55s
Bit rate mode                    : Constant
Bit rate                         : 64.0 Kbps
Channel(s)                       : 2 channels
Sampling rate                    : 48.0 KHz
Compression mode                 : Lossy
Stream size                      : 4.54 MiB (3%)
Alignment                        : Aligned on interleaves
Interleave, duration             : 24 ms (0.60 video frame)


Screen:
 
http://bayimg.com/damAFAAEC
 
http://bayimg.com/daMAhaAec
 
http://bayimg.com/dAmaJAaEc
 
http://bayimg.com/dAmAKAAEc


Only movie in torrent, NO shit
